<?xml version="1.0" encoding="UTF-8" standalone="no"?>
<!-- Created with Inkscape (http://www.inkscape.org/) -->

<svg
   xmlns:dc="http://purl.org/dc/elements/1.1/"
   xmlns:cc="http://creativecommons.org/ns#"
   xmlns:rdf="http://www.w3.org/1999/02/22-rdf-syntax-ns#"
   xmlns:svg="http://www.w3.org/2000/svg"
   xmlns="http://www.w3.org/2000/svg"
   version="1.1"
   width="600"
   height="438"
   id="svg2">
  <defs
     id="defs4" />
  <metadata
     id="metadata7">
    <rdf:RDF>
      <cc:Work
         rdf:about="">
        <dc:format>image/svg+xml</dc:format>
        <dc:type
           rdf:resource="http://purl.org/dc/dcmitype/StillImage" />
        <dc:title></dc:title>
      </cc:Work>
    </rdf:RDF>
  </metadata>
  <g
     transform="translate(0,-1.9335982)"
     id="layer1">
    <path
       d="m 33.129861,428.64132 c -7.51591,-3.72031 -11.60541,-10.19271 -13.37231,-21.16421 -2.99327,-18.5865 8.22454,-46.01932 29.53678,-72.23131 13.26659,-16.31661 38.538623,-39.8941 60.583889,-56.52161 16.06366,-12.11592 42.73896,-34.98554 45.27195,-38.81315 3.00062,-4.53425 6.46437,-15.13962 10.34197,-31.66524 2.46975,-10.52564 2.82204,-14.02724 2.86736,-28.5 0.0345,-11.02282 0.45552,-17.21455 1.26825,-18.65259 1.48457,-2.62678 8.87954,-6.34741 12.61585,-6.34741 5.88295,0 12.5593,5.70076 15.09577,12.8899 2.13428,6.04918 1.92786,17.24824 -0.48792,26.4714 -1.11472,4.25588 -5.83972,18.42335 -10.5,31.48326 -4.66028,13.05991 -8.47323,24.3291 -8.47323,25.04264 0,0.71354 0.9,2.44151 2,3.83993 2.49987,3.17807 2.62541,9.29216 0.25,12.1755 -0.9625,1.16832 -3.9845,3.58067 -6.71556,5.36079 -5.3823,3.50821 -4.71819,2.39616 -19.93446,33.38041 -18.21688,37.09426 -46.84911,78.54891 -71.093329,102.93119 -16.43324,16.52682 -26.76963,22.42592 -39.2916,22.42419 -3.79346,-5.2e-4 -7.14349,-0.70785 -9.96341,-2.10369 z m 30.65525,-48.53316 c 12.16308,-8.07332 30.018015,-29.24774 49.634599,-58.86236 11.01849,-16.63433 20.4685,-33.82335 19.25964,-35.0322 -0.90356,-0.90356 -8.32303,3.10224 -16.80113,9.071 -32.501759,22.88192 -66.110669,62.39788 -68.615929,80.67576 -0.52889,3.8587 -0.28553,4.88398 1.60896,6.77847 3.01985,3.01985 7.62462,2.20761 14.91386,-2.63067 z M 207.0214,273.25286 c -9.3585,-2.91945 -13.57842,-10.31827 -13.40729,-23.50706 0.25817,-19.89764 11.29672,-46.99767 26.62362,-65.36195 6.23989,-7.47648 22.24626,-20.33326 30.14049,-24.20973 3.85,-1.89054 9.13107,-3.7206 11.7357,-4.0668 9.78298,-1.30031 19.78467,4.30663 23.41085,13.12411 1.0194,2.47878 2.10339,4.50856 2.40888,4.51062 1.09105,0.007 13.87847,-11.00485 14.78638,-12.73367 0.5091,-0.96942 2.61979,-7.38758 4.69042,-14.26258 22.26407,-73.922145 56.30117,-123.968082 91.39927,-134.387562 10.144,-3.0114234 16.24246,-1.759707 21.42308,4.397116 15.6434,18.591121 -9.7554,64.910882 -75.96242,138.532576 -16.67929,18.54724 -16.79642,18.76732 -22.06436,41.45787 -2.12494,9.15274 -2.68601,14.15342 -2.74885,24.5 l -0.079,13 4.04109,-0.0709 c 6.75841,-0.11853 17.41665,-8.40853 42.81941,-33.30501 l 11.86055,-11.62409 4.84036,-18 c 21.55164,-80.144811 52.1731,-133.314112 87.22526,-151.452805 8.35996,-4.326091 17.23497,-6.547126 22.33697,-5.589985 4.67762,0.877527 9.90048,5.729728 11.95332,11.105009 2.34814,6.148517 1.47918,17.515439 -2.09753,27.437783 -9.96656,27.648824 -36.8789,65.807428 -80.75213,114.497248 l -12.61259,13.99725 -3.06335,10.50275 c -4.33796,14.87273 -6.05131,24.81712 -6.05131,35.1221 0,7.34718 0.29116,9.05515 1.63132,9.56941 2.38877,0.91666 9.28197,-3.21207 18.42311,-11.03465 7.07361,-6.05329 8.58578,-7.97562 12.59902,-16.01651 7.19809,-14.422 14.47487,-24.58078 24.31469,-33.94465 14.98173,-14.25706 30.54311,-20.41851 44.89174,-17.77467 6.02864,1.11082 6.69287,1.04917 9.27637,-0.86089 4.61495,-3.41198 8.65984,-2.28618 11.49678,3.19987 2.40257,4.64605 2.12906,17.40108 -0.58598,27.3271 -1.19083,4.3536 -5.31781,14.44064 -9.17107,22.41564 -7.39639,15.30813 -9.76475,23.22418 -7.69458,25.71857 0.65164,0.78518 2.97783,2.34234 5.1693,3.46034 5.67511,2.89523 14.34519,2.22532 22.12181,-1.70929 10.26434,-5.19328 26.98726,-22.71454 36.49345,-38.23561 4.82675,-7.88078 7.75375,-8.73162 9.97148,-2.89856 2.76775,7.27974 0.94547,11.83266 -13.27395,33.16455 -8.53152,12.79894 -12.14597,16.98083 -19.96349,23.09762 -12.57704,9.84086 -24.35574,13.97898 -37.54653,13.19095 -8.90254,-0.53185 -13.62649,-2.60354 -21.12744,-9.26545 -5.72605,-5.08554 -6.36327,-5.05392 -12.90204,0.64016 -6.20595,5.40424 -14.37901,9.00723 -21.7797,9.60128 -5.46719,0.43886 -6.77736,0.17169 -10.84341,-2.21118 -2.54368,-1.49069 -6.69417,-5.37503 -9.22333,-8.63186 -2.52916,-3.25684 -5.2549,-5.92152 -6.0572,-5.92152 -0.8023,0 -4.02664,1.55992 -7.16519,3.46649 -11.02326,6.69628 -21.12493,10.91094 -27.20543,11.35076 -7.44533,0.53855 -10.03903,-0.16654 -14.26651,-3.87833 -5.183,-4.55073 -7.07277,-11.11002 -7.07849,-24.56897 l -0.005,-11.13004 -8.73251,8.13004 c -27.42802,25.53572 -34.92163,30.9176 -47.55565,34.15429 -4.80633,1.23133 -7.00462,1.33937 -10.12969,0.49788 -15.22297,-4.09912 -18.44316,-24.21229 -10.4646,-65.36158 1.36921,-7.06171 2.35289,-13.1926 2.18596,-13.6242 -0.16693,-0.43161 -2.7017,0.39615 -5.63282,1.83946 -5.2754,2.59765 -5.37769,2.73547 -10.11146,13.6242 -10.08806,23.20478 -20.45406,39.18367 -34.14547,52.63421 -9.13087,8.97024 -17.2938,14.20879 -25.45183,16.33369 -6.94747,1.80959 -7.63706,1.81161 -13.31875,0.0392 z m 30.92478,-39.3352 c 8.12751,-5.15432 18.91625,-19.84293 20.54084,-27.96585 l 0.62679,-3.13397 -3.36119,0.96398 c -7.98777,2.29086 -17.5805,0.46761 -22.66342,-4.30754 -2.79257,-2.62348 -3.14075,-2.22984 -6.4317,7.27152 -1.70355,4.91836 -2.25477,8.77135 -2.26533,15.83449 -0.0134,8.99519 0.088,9.42228 2.79181,11.75 3.60874,3.1068 5.31584,3.04134 10.7622,-0.41263 z m 231.46377,0.37933 c 5.77433,-2.41267 10.17955,-6.40736 12.52222,-11.35527 4.64939,-9.81987 11.94196,-30.85135 11.94396,-34.44592 0.006,-10.34059 -12.81269,-10.4481 -24.77618,-0.2078 -5.69604,4.8756 -13.56743,16.98164 -16.21551,24.93912 -2.6884,8.07862 -2.15857,12.13663 2.23843,17.14454 4.8063,5.47408 8.28979,6.43116 14.28708,3.92533 z m -21.5738,-125.71963 c 14.39684,-21.583166 21.64397,-37.320076 24.01149,-52.140156 1.00225,-6.273808 0.51439,-14.71976 -0.84723,-14.66754 -0.68467,0.02626 -7.98768,12.19765 -17.98613,29.976138 -12.47839,22.188139 -30.16922,60.894318 -32.69035,71.523978 -1.00338,4.23046 15.06256,-16.0284 27.51222,-34.69242 z m -93.5192,9.16844 c 18.15437,-22.232607 30.19763,-42.495844 34.51353,-58.070285 2.09115,-7.54615 2.69709,-18.3568 1.16445,-20.775107 -1.60908,-2.538935 -23.96179,34.851299 -36.67363,61.345392 -6.30418,13.13921 -14.49379,33.17751 -14.41618,35.27347 0.0319,0.86107 2.83828,-2.37537 15.41183,-17.77347 z m -180.54085,4.74855 c -7.05562,-4.67506 -11.12497,-19.4491 -7.39231,-26.838212 3.4636,-6.856478 9.80382,-11.910336 14.94189,-11.910336 6.35185,0 16.55254,14.765347 16.55254,23.959548 0,12.42566 -14.36567,21.2404 -24.10212,14.789 z"
       id="path3050"
       style="fill:#000000" />
  </g>
</svg>
